<?xml version="1.0" encoding="UTF-8" standalone="no"?>
<!-- Created with Inkscape (http://www.inkscape.org/) -->

<svg
   width="260"
   height="260"
   id="svg2"
   version="1.1"
   inkscape:version="1.2.1 (9c6d41e410, 2022-07-14)"
   sodipodi:docname="info.svg"
   xmlns:inkscape="http://www.inkscape.org/namespaces/inkscape"
   xmlns:sodipodi="http://sodipodi.sourceforge.net/DTD/sodipodi-0.dtd"
   xmlns="http://www.w3.org/2000/svg"
   xmlns:svg="http://www.w3.org/2000/svg"
   xmlns:rdf="http://www.w3.org/1999/02/22-rdf-syntax-ns#"
   xmlns:cc="http://creativecommons.org/ns#"
   xmlns:dc="http://purl.org/dc/elements/1.1/">
  <defs
     id="defs4" />
  <sodipodi:namedview
     id="base"
     pagecolor="#ffffff"
     bordercolor="#666666"
     borderopacity="1.0"
     inkscape:pageopacity="0.0"
     inkscape:pageshadow="2"
     inkscape:zoom="1.979899"
     inkscape:cx="196.22213"
     inkscape:cy="95.964491"
     inkscape:document-units="px"
     inkscape:current-layer="layer1"
     showgrid="false"
     inkscape:snap-global="false"
     fit-margin-top="0"
     fit-margin-left="0"
     fit-margin-right="0"
     fit-margin-bottom="0"
     inkscape:window-width="1920"
     inkscape:window-height="1017"
     inkscape:window-x="-8"
     inkscape:window-y="-8"
     inkscape:window-maximized="1"
     inkscape:showpageshadow="2"
     inkscape:pagecheckerboard="0"
     inkscape:deskcolor="#d1d1d1" />
  <metadata
     id="metadata7">
    <rdf:RDF>
      <cc:Work
         rdf:about="">
        <dc:format>image/svg+xml</dc:format>
        <dc:type
           rdf:resource="http://purl.org/dc/dcmitype/StillImage" />
        <dc:title />
      </cc:Work>
    </rdf:RDF>
  </metadata>
  <g
     inkscape:label="Layer 1"
     inkscape:groupmode="layer"
     id="layer1"
     transform="translate(-242.04724,-396.18109)">
    <circle
       style="fill:#2c89a0;fill-opacity:1;stroke:none;stroke-width:0.076938"
       id="path2985"
       cx="252.04727"
       cy="406.18109"
       r="10" />
    <g
       style="font-style:italic;font-variant:normal;font-weight:bold;font-stretch:normal;font-size:208px;line-height:125%;font-family:Serif;-inkscape-font-specification:'Serif Bold Italic';text-align:start;letter-spacing:0px;word-spacing:0px;writing-mode:lr-tb;text-anchor:start;fill:#ffffff;fill-opacity:1;stroke:none"
       id="text3755"
       transform="matrix(0.07692308,0,0,0.07692308,223.42825,365.70562)">
      <path
         d="m 387.98474,443.27094 c 4.84369,1.6e-4 8.92572,1.67984 12.24609,5.03906 3.32025,3.35953 4.9804,7.42202 4.98047,12.1875 -7e-5,4.76576 -1.67975,8.82826 -5.03906,12.1875 -3.35944,3.3595 -7.42193,5.03919 -12.1875,5.03906 -4.68755,1.3e-4 -8.71098,-1.67956 -12.07031,-5.03906 -3.35941,-3.35924 -5.0391,-7.42174 -5.03906,-12.1875 -4e-5,-4.76548 1.66011,-8.82797 4.98046,-12.1875 3.32027,-3.35922 7.36324,-5.0389 12.12891,-5.03906 z m 7.26563,53.90625 -24.02344,83.32031 c -1.32816,4.76564 -1.99222,7.89064 -1.99219,9.375 -3e-5,0.85939 0.35153,1.66017 1.05469,2.40234 0.70309,0.7422 1.44527,1.11329 2.22656,1.11328 1.32809,1e-5 2.65621,-0.58592 3.98438,-1.75781 3.51558,-2.89061 7.73432,-8.12498 12.65625,-15.70312 l 3.98437,2.34375 c -11.79692,20.54688 -24.33597,30.8203 -37.61719,30.82031 -5.07814,-10e-6 -9.1211,-1.42579 -12.1289,-4.27735 -3.00782,-2.85155 -4.51173,-6.46483 -4.51172,-10.83984 -10e-6,-2.89061 0.66406,-6.56248 1.99219,-11.01562 l 16.28906,-56.01563 c 1.56247,-5.39054 2.34372,-9.45304 2.34375,-12.1875 -3e-5,-1.71866 -0.74221,-3.24209 -2.22656,-4.57031 -1.4844,-1.32803 -3.51565,-1.99209 -6.09375,-1.99219 -1.17189,10e-5 -2.57814,0.0392 -4.21875,0.11719 l 1.52343,-4.6875 39.72657,-6.44531 z"
         style="font-size:240px;font-family:Serif;-inkscape-font-specification:'Serif Bold Italic';fill:#ffffff"
         id="path3760" />
    </g>
  </g>
</svg>
